<svg width="105" height="33" viewBox="0 0 118 24" fill="none" xmlns="http://www.w3.org/2000/svg">
<path d="M0.16 23H2.95V9.5H7C8.18 9.5 9.1 9.83 9.76 10.49C10.42 11.15 10.75 12.06 10.75 13.22V23H13.57V13.16C13.57 11.18 12.99 9.63 11.83 8.51C10.67 7.39 9.06 6.83 7 6.83H2.95V0.289999H0.16V23ZM25.4523 23.36H31.2123V20.81H25.4523C24.4123 20.81 23.4723 20.61 22.6323 20.21C21.8123 19.79 21.1523 19.2 20.6523 18.44C20.1523 17.68 19.8823 16.78 19.8423 15.74H32.2023C32.3023 15.2 32.3523 14.7 32.3523 14.24C32.3523 12.9 32.0523 11.64 31.4523 10.46C30.8523 9.28 29.9823 8.32 28.8423 7.58C27.7223 6.84 26.3623 6.47 24.7623 6.47C23.2623 6.47 21.9223 6.83 20.7423 7.55C19.5623 8.27 18.6223 9.27 17.9223 10.55C17.2423 11.81 16.9023 13.25 16.9023 14.87C16.9023 16.49 17.2623 17.94 17.9823 19.22C18.7023 20.5 19.7023 21.51 20.9823 22.25C22.2623 22.99 23.7523 23.36 25.4523 23.36ZM24.7623 8.96C25.5823 8.96 26.3323 9.15 27.0123 9.53C27.6923 9.89 28.2423 10.4 28.6623 11.06C29.0823 11.72 29.3023 12.48 29.3223 13.34H19.9023C20.1023 11.98 20.6623 10.91 21.5823 10.13C22.5023 9.35 23.5623 8.96 24.7623 8.96ZM40.4957 23.36C41.6757 23.36 42.7357 23.14 43.6757 22.7C44.6157 22.24 45.3757 21.64 45.9557 20.9V23H48.6857V13.16C48.6857 11.18 48.1057 9.63 46.9457 8.51C45.7857 7.39 44.1757 6.83 42.1157 6.83H36.6557V9.5H42.0557C43.1757 9.5 44.0657 9.79 44.7257 10.37C45.4057 10.95 45.7857 11.75 45.8657 12.77L40.3757 13.67C38.5557 13.97 37.2157 14.58 36.3557 15.5C35.5157 16.4 35.0957 17.49 35.0957 18.77C35.0957 20.13 35.5957 21.24 36.5957 22.1C37.6157 22.94 38.9157 23.36 40.4957 23.36ZM38.0357 18.68C38.0357 17.98 38.2657 17.39 38.7257 16.91C39.2057 16.43 39.9657 16.1 41.0057 15.92L45.8957 15.11V16.13C45.8957 17.03 45.6857 17.85 45.2657 18.59C44.8457 19.33 44.2557 19.92 43.4957 20.36C42.7357 20.78 41.8457 20.99 40.8257 20.99C40.0257 20.99 39.3557 20.77 38.8157 20.33C38.2957 19.89 38.0357 19.34 38.0357 18.68ZM60.3616 23.36C61.5616 23.36 62.6516 23.13 63.6316 22.67C64.6316 22.19 65.4316 21.51 66.0316 20.63V23H68.7616V0.289999H65.9416V8.99C65.3216 8.19 64.5316 7.57 63.5716 7.13C62.6116 6.69 61.5416 6.47 60.3616 6.47C58.8416 6.47 57.4716 6.84 56.2516 7.58C55.0516 8.32 54.1016 9.33 53.4016 10.61C52.7016 11.87 52.3516 13.31 52.3516 14.93C52.3516 16.53 52.7016 17.97 53.4016 19.25C54.1016 20.51 55.0516 21.51 56.2516 22.25C57.4716 22.99 58.8416 23.36 60.3616 23.36ZM60.6016 20.66C59.5816 20.66 58.6716 20.41 57.8716 19.91C57.0716 19.41 56.4416 18.73 55.9816 17.87C55.5216 16.99 55.2916 16.01 55.2916 14.93C55.2916 13.83 55.5216 12.85 55.9816 11.99C56.4416 11.11 57.0716 10.42 57.8716 9.92C58.6916 9.42 59.6016 9.17 60.6016 9.17C61.6216 9.17 62.5316 9.43 63.3316 9.95C64.1316 10.45 64.7616 11.13 65.2216 11.99C65.7016 12.85 65.9416 13.83 65.9416 14.93C65.9416 16.01 65.7016 16.99 65.2216 17.87C64.7616 18.73 64.1316 19.41 63.3316 19.91C62.5316 20.41 61.6216 20.66 60.6016 20.66ZM78.8699 23.36C80.0299 23.36 81.0499 23.16 81.9299 22.76C82.8099 22.36 83.4999 21.81 83.9999 21.11C84.4999 20.39 84.7499 19.57 84.7499 18.65C84.7499 17.53 84.3799 16.57 83.6399 15.77C82.8999 14.97 81.8799 14.38 80.5799 14L77.9399 13.22C77.6199 13.12 77.2899 13 76.9499 12.86C76.6099 12.7 76.3199 12.48 76.0799 12.2C75.8399 11.9 75.7199 11.52 75.7199 11.06C75.7199 10.42 75.9599 9.9 76.4399 9.5C76.9399 9.1 77.5899 8.9 78.3899 8.9C79.2699 8.9 80.0699 9.15 80.7899 9.65C81.5299 10.13 82.0799 10.79 82.4399 11.63L84.7199 10.58C84.2399 9.28 83.4299 8.27 82.2899 7.55C81.1699 6.83 79.8999 6.47 78.4799 6.47C77.4199 6.47 76.4599 6.67 75.5999 7.07C74.7599 7.47 74.0899 8.03 73.5899 8.75C73.1099 9.45 72.8699 10.28 72.8699 11.24C72.8699 12.28 73.1999 13.2 73.8599 14C74.5399 14.78 75.6099 15.37 77.0699 15.77L79.4999 16.46C79.8399 16.54 80.1899 16.67 80.5499 16.85C80.9299 17.01 81.2499 17.24 81.5099 17.54C81.7899 17.82 81.9299 18.2 81.9299 18.68C81.9299 19.36 81.6399 19.91 81.0599 20.33C80.4799 20.75 79.7499 20.96 78.8699 20.96C77.8899 20.96 76.9999 20.69 76.1999 20.15C75.3999 19.59 74.7699 18.82 74.3099 17.84L72.0899 18.92C72.5899 20.28 73.4399 21.36 74.6399 22.16C75.8399 22.96 77.2499 23.36 78.8699 23.36ZM93.1422 23.36C94.3222 23.36 95.3822 23.14 96.3222 22.7C97.2622 22.24 98.0222 21.64 98.6022 20.9V23H101.332V13.16C101.332 11.18 100.752 9.63 99.5922 8.51C98.4322 7.39 96.8222 6.83 94.7622 6.83H89.3022V9.5H94.7022C95.8222 9.5 96.7122 9.79 97.3722 10.37C98.0522 10.95 98.4322 11.75 98.5122 12.77L93.0222 13.67C91.2022 13.97 89.8622 14.58 89.0022 15.5C88.1622 16.4 87.7422 17.49 87.7422 18.77C87.7422 20.13 88.2422 21.24 89.2422 22.1C90.2622 22.94 91.5622 23.36 93.1422 23.36ZM90.6822 18.68C90.6822 17.98 90.9122 17.39 91.3722 16.91C91.8522 16.43 92.6122 16.1 93.6522 15.92L98.5422 15.11V16.13C98.5422 17.03 98.3322 17.85 97.9122 18.59C97.4922 19.33 96.9022 19.92 96.1422 20.36C95.3822 20.78 94.4922 20.99 93.4722 20.99C92.6722 20.99 92.0022 20.77 91.4622 20.33C90.9422 19.89 90.6822 19.34 90.6822 18.68ZM105.658 4.25H108.448V0.649998H105.658V4.25ZM105.658 23H108.448V6.83H105.658V23ZM117.217 23.18H117.787V20.75H117.547C116.227 20.75 115.567 20.14 115.567 18.92V0.289999H112.777V19.13C112.777 21.83 114.257 23.18 117.217 23.18Z" fill="#111111"/>
</svg>
